<?xml version="1.0" standalone="no"?><!DOCTYPE svg PUBLIC "-//W3C//DTD SVG 1.1//EN" "http://www.w3.org/Graphics/SVG/1.1/DTD/svg11.dtd"><svg width="100%" height="100%" viewBox="0 0 32 26" version="1.1" xmlns="http://www.w3.org/2000/svg" xmlns:xlink="http://www.w3.org/1999/xlink" xml:space="preserve" style="fill-rule:evenodd;clip-rule:evenodd;stroke-linejoin:round;stroke-miterlimit:1.41421;"><g><path d="M31.5,25.5l-31.5,0l0,-25.5l31.5,0l0,9l-26.25,0l0,-1.5l24.75,0l0,-6l-28.5,0l0,22.5l28.5,0l0,-13.5l1.5,0l0,15Z" style="fill:#232323;fill-rule:nonzero;"/><path d="M6,4.5c0,-0.829 -0.672,-1.5 -1.5,-1.5c-0.828,0 -1.5,0.671 -1.5,1.5c0,0.829 0.672,1.5 1.5,1.5c0.828,0 1.5,-0.671 1.5,-1.5" style="fill:#232323;fill-rule:nonzero;"/><path d="M13.5,4.5c0,-0.829 -0.672,-1.5 -1.5,-1.5c-0.828,0 -1.5,0.671 -1.5,1.5c0,0.829 0.672,1.5 1.5,1.5c0.828,0 1.5,-0.671 1.5,-1.5" style="fill:#232323;fill-rule:nonzero;"/><path d="M9.75,4.5c0,-0.829 -0.672,-1.5 -1.5,-1.5c-0.828,0 -1.5,0.671 -1.5,1.5c0,0.829 0.672,1.5 1.5,1.5c0.828,0 1.5,-0.671 1.5,-1.5" style="fill:#232323;fill-rule:nonzero;"/><path d="M5.25,20.25l7.5,0l0,-7.5l-7.5,0l0,7.5ZM14.25,21.75l-10.5,0l0,-10.5l10.5,0l0,10.5Z" style="fill:#232323;fill-rule:nonzero;"/><path d="M28.5,21.75l-12,0l0,-1.5l10.5,0l0,-3l-10.5,0l0,-1.5l12,0l0,6Z" style="fill:#232323;fill-rule:nonzero;"/><rect x="17.063" y="11.25" width="12" height="1.5" style="fill:#232323;fill-rule:nonzero;"/></g></svg>