<svg fill="none" height="50" viewBox="0 0 100 50" width="100" xmlns="http://www.w3.org/2000/svg"><path clip-rule="evenodd" d="m21.6039 13h-18.51763c-.81714-.0013-1.60133.3221-2.180101.8989-.578768.5769-.90471987 1.36-.906169 2.1771v18.4561c0 1.6986 1.38216 3.076 3.08627 3.076h18.51763c.8171.0013 1.6013-.3221 2.1801-.8989.5787-.5768.9047-1.36.9061-2.1771v-18.4561c0-1.6986-1.3814-3.076-3.0862-3.076zm-5.9675 4.5115c0-.4525.3691-.8203.8237-.8203s.823.3678.823.8203v10.9595c0 .4525-.3691.8203-.823.8203-.2179.0001-.4269-.0861-.5812-.2399s-.2413-.3626-.2418-.5804v-10.9595zm-4.115-.4149c0-.4532.3691-.8203.8237-.8203.4545 0 .8237.3671.8237.8203v11.8939c0 .4532-.3692.8203-.8237.8203-.2179.0001-.4269-.0861-.5812-.2399s-.2413-.3626-.2418-.5804v-11.8939zm-4.11436.4149c0-.4525.36912-.8203.82301-.8203.45456 0 .823.3678.823.8203v10.9595c0 .4525-.36844.8203-.823.8203-.21786.0001-.42689-.0861-.58119-.2399s-.24128-.3626-.24182-.5804zm-4.11502 1.6405c0-.4532.36844-.8202.823-.8202.45457 0 .82301.367.82301.8202v7.3777c0 .4532-.36912.8203-.82301.8203-.1079.0001-.21477-.0209-.31453-.0621-.09975-.0411-.19043-.1015-.26685-.1776-.07643-.0762-.1371-.1667-.17856-.2663-.04145-.0996-.06288-.2064-.06306-.3143zm17.81898 12.5119c-.1264.1094-3.1758 2.6583-8.7659 2.6583-5.59017 0-8.63748-2.5496-8.76599-2.659-.0819-.0699-.14919-.1554-.19801-.2514-.04881-.096-.07819-.2007-.08645-.3081-.00825-.1074.00477-.2153.03834-.3177.03357-.1023.08701-.197.15726-.2787.14205-.1648.34348-.2668.56039-.2837.2169-.0169.4317.0527.59756.1935.04785.0403 2.77046 2.2646 7.6962 2.2646 4.9872 0 7.6681-2.2407 7.6941-2.2626.1657-.1418.3808-.2122.5982-.1957.2175.0165.4195.1186.5618.2839.0707.0815.1246.1761.1585.2785.0338.1024.0471.2105.039.318-.0082.1076-.0375.2125-.0864.3086-.049.0961-.1164.1816-.1986.2515zm.2871-5.1335c0 .4525-.3691.8202-.823.8202-.1079.0002-.2148-.0209-.3145-.062-.0998-.0411-.1904-.1015-.2669-.1777-.0764-.0761-.1371-.1666-.1785-.2662-.0415-.0996-.0629-.2064-.0631-.3143v-7.3784c0-.4532.3684-.8202.8223-.8202.4546 0 .8237.367.8237.8202v7.3777zm13.5967 2.3876c.002.1004-.0162.2002-.0537.2933-.0375.0932-.0934.1778-.1644.2488s-.1556.1269-.2487.1644c-.0932.0374-.193.0557-.2933.0537-.4348 0-.7478-.3439-.7478-.7602v-7.2471c0-.4169.3137-.7601.7601-.7601.434 0 .7478.3432.7478.7601zm9.7496-7.2471v6.6224c0 .8954-.4703 1.3978-1.2181 1.3978h-.0602c-.7116 0-1.0499-.4169-1.3514-1.0301l-1.5202-3.0049-1.3514-3.102.0362 3.0049.0117 3.3474c.002.1004-.0163.2002-.0537.2933-.0375.0931-.0934.1778-.1644.2488s-.1556.1269-.2488.1643c-.0931.0375-.1929.0558-.2933.0537-.434 0-.7478-.3438-.7478-.7601v-6.6223c0-.8223.4703-1.3986 1.2919-1.3986h.0595c.7601 0 1.0739.417 1.376 1.0302l1.4963 2.9803 1.2783 2.8948-.0356-2.7718-.0123-3.3474c0-.4169.3138-.7601.7602-.7601.434-.0007.7471.3418.7471.7588zm6.0461 7.2355c.002.1004-.0163.2002-.0537.2933-.0375.0931-.0934.1778-.1644.2488s-.1556.1269-.2488.1643c-.0931.0375-.1929.0558-.2933.0537-.434 0-.7478-.3438-.7478-.7601v-6.5608h-1.8709c-.3862 0-.6999-.2939-.6999-.7232 0-.417.3144-.7109.6999-.7109h5.2484c.3862 0 .7.2939.7.7232 0 .417-.3138.7109-.7.7109h-1.8702v6.5608zm4.5367-.2461v-6.8055c0-.6371.35-.9925.9898-.9686h4.344c.3863 0 .6993.3063.6993.7232 0 .417-.313.7109-.6993.7109h-3.8368v2.1095h3.3905c.3746 0 .6767.2823.6767.687 0 .4046-.3021.6863-.6767.6863h-3.3905v2.428h3.8375c.3862 0 .6993.3062.6993.7238 0 .417-.3131.7109-.6993.7109h-4.3802c-.6268 0-.9775-.3554-.9529-1.0048zm14.2516 1.0425c.4224-.2208.555-.6747.3499-1.0302l-1.5079-2.7219c1.2427-.2454 1.9673-1.1771 1.9673-2.4403 0-1.3241-.8203-2.6242-2.7876-2.6242h-2.8607c-.6391-.0239-.9891.3315-.9891.9686v7.0639c0 .417.3138.7601.7478.7601.1004.0021.2002-.0162.2933-.0537.0932-.0374.1778-.0933.2488-.1643s.1269-.1556.1644-.2488c.0374-.0931.0557-.1929.0537-.2933l-.0123-2.6727h1.5926l1.6775 3.1512c.2051.3555.6514.5147 1.0616.3056zm-1.9434-4.8437h-2.389v-2.5395h2.3774c.7963 0 1.2427.5148 1.2427 1.2633s-.4218 1.2762-1.2304 1.2762zm5.8649 4.1567c-.905-.821-1.3151-2.1088-1.3151-3.7275 0-1.6309.3978-2.9058 1.2912-3.7151.555-.4908 1.3029-.8223 2.389-.8223.9536 0 1.6898.2214 2.2448.6993.4826.3923.8326.9446 1.0377 1.7171.1087.4046-.1688.8093-.6268.8954-.4348.0732-.7841-.2085-.9174-.6131-.1442-.3924-.3383-.674-.5673-.8709-.3138-.2823-.6993-.4047-1.2065-.4047-.5428 0-1.0144.1593-1.3637.5148-.5072.5147-.7246 1.4354-.7246 2.5995 0 1.1532.2051 2.0726.7369 2.5873.3493.3555.8086.5147 1.3391.5147.555 0 .9768-.1463 1.3275-.4778.1804-.1716.3383-.3923.4463-.6494.1572-.3807.4826-.663.9051-.5646.4217.0985.6876.5147.555.9194-.218.674-.5913 1.214-1.0978 1.5818-.555.4046-1.2434.6138-2.1115.6138-1.1101 0-1.8107-.3315-2.3419-.797zm11.0785-8.2642c-2.6194 0-3.7295 1.7902-3.7295 4.5367 0 2.8327 1.0984 4.5375 3.7295 4.5375 2.5818 0 3.7165-1.7048 3.7165-4.5375 0-2.7957-1.1224-4.5374-3.7165-4.5374zm-.0123 1.4347c1.4354 0 2.1839 1.0172 2.1839 3.102 0 2.0849-.7608 3.102-2.1839 3.102-1.4362 0-2.1608-1.0171-2.1608-3.102 0-2.0841.7485-3.102 2.1608-3.102zm15.4333 6.7201c.0022.1004-.0162.2002-.0536.2933-.0375.0931-.0934.1778-.1644.2488s-.1556.1269-.2488.1643c-.0931.0375-.1929.0558-.2933.0537-.4347 0-.7478-.3438-.7478-.7601v-3.2865l.0356-3.2011-1.05 3.2503-1.0616 3.2004c-.1804.5639-.555.7854-1.0253.7854-.4949 0-.8572-.2331-1.0499-.797l-1.0862-3.1881-1.0021-3.2005.0362 3.1512v3.2866c.0021.1004-.0162.2001-.0537.2933-.0374.0931-.0934.1777-.1644.2487-.0709.071-.1556.127-.2487.1644-.0932.0375-.1929.0558-.2933.0537-.4341 0-.7478-.3438-.7478-.7601v-6.5608c0-.9078.4826-1.4355 1.3275-1.4355.7963 0 1.2427.4293 1.4956 1.2147l1.1101 3.3474.676 2.281.6877-2.281 1.1101-3.3474c.2536-.7854.6883-1.214 1.4847-1.214.8449 0 1.3151.5147 1.3151 1.4355z" fill="#000" fill-rule="evenodd"/></svg>
