<svg fill="none" height="50" viewBox="0 0 100 50" width="100" xmlns="http://www.w3.org/2000/svg"><path clip-rule="evenodd" d="m22 5.69805h8.5821v23.03245c0 3.645 1.6674 5.8162 2.9858 6.747-1.3958 1.2407-5.6612 2.3265-8.8408-.3104-1.8746-1.5542-2.7271-4.11-2.7271-6.5142zm53.635 19.13255v-2.4205h2.6174v-8.4916h-2.8744c-1.1034-5.09822-5.6423-8.9185-11.0705-8.9185-6.2534 0-11.3224 5.0693-11.3224 11.3224v19.8306c1.7815.2503 3.9039-.0312 5.7097-1.5286 1.8743-1.5546 2.7268-4.1101 2.7268-6.5143v-.7306h4.2862v-8.4916h-4.2862v-2.5655h.0103c0-1.588 1.2873-2.8753 2.8756-2.8753 1.5879 0 2.8804 1.2873 2.8804 2.8753v8.5082c0 6.253 5.0745 11.3224 11.3275 11.3224v-8.4471c-1.588 0-2.8804-1.2874-2.8804-2.8753zm-32.5037-10.9121v12.4623c0 .7075-.587 1.2811-1.3113 1.2811s-1.3113-.5736-1.3113-1.2811v-12.4623h-8.4919v14.657c0 2.6366.8942 5.9712 4.9634 7.057 4.0735 1.0869 6.4366-1.1631 6.4366-1.1631-.2152 1.4823-1.6113 2.568-3.8602 2.8007-1.7016.1759-3.8777-.3877-4.9632-.8531v7.7654c2.766.8156 5.6915 1.0792 8.5545.5236 5.1958-1.0081 8.4751-5.3509 8.4751-11.1285v-19.659z" fill="#ea0b8c" fill-rule="evenodd"/></svg>
