<svg id="Layer_1" data-name="Layer 1" xmlns="http://www.w3.org/2000/svg" viewBox="0 0 277.8 50.24"><defs><style>.cls-1{fill:#fff;}</style></defs><title>ReadMe_Logo_White</title><path class="cls-1" d="M108,25.95a7.74,7.74,0,0,0,8.12,7.33,11.4,11.4,0,0,0,8.48-3.91.8.8,0,0,1,1.28-.12l2.93,3.17A.91.91,0,0,1,129,33.7l-.05.06c-.61,1-4.82,6.35-13.49,6.35s-15.81-5.74-15.81-15.5A15,15,0,0,1,114.27,9.23h.47C124.26,9.23,129,15,129,25a1,1,0,0,1-1,1H108Zm13.25-4.7c-.12-2.81-1.89-5.62-6.23-5.62-3.54,0-6.23,1.77-6.9,5.62h13.13Z" transform="translate(-0.05 0.01)"/><path class="cls-1" d="M256.66,25.84a7.74,7.74,0,0,0,8.14,7.32h0a11.4,11.4,0,0,0,8.48-3.91.8.8,0,0,1,1.28-.12l2.93,3.17a.91.91,0,0,1,.17,1.28l-.05.06c-.61,1-4.82,6.35-13.49,6.35s-15.81-5.74-15.81-15.5A15,15,0,0,1,263,9.16h.39c9.52,0,14.28,5.74,14.28,15.75a1,1,0,0,1-1,1h-20Zm13.24-4.68c-.12-2.81-1.89-5.62-6.23-5.62-3.54,0-6.23,1.77-6.9,5.62Z" transform="translate(-0.05 0.01)"/><path class="cls-1" d="M157.94,39.66a2.49,2.49,0,0,1-2.81-2.81V34.29H155c-.85,2.08-3.3,5.8-9.28,5.8-8.48,0-13.67-6.35-13.67-15.38,0-9.89,5.8-15.57,13.73-15.57,5.8,0,8.55,3.17,9,4.27h.12V10.54a.77.77,0,0,1,.68-.85h5.66a.8.8,0,0,1,.85.75.81.81,0,0,1,0,.1V33.16h2.28a.71.71,0,0,1,.79.85v4.76a.76.76,0,0,1-.66.85h-6.56Zm-3.66-14.89c0-5.74-3.11-8.67-7-8.67-4.33,0-7.26,3.42-7.26,8.73s3.11,8.48,7.26,8.48c3.71,0,7-2.87,7-8.55Z" transform="translate(-0.05 0.01)"/><path class="cls-1" d="M97.71,16.79a17.59,17.59,0,0,1,4.86-6.16.61.61,0,0,0-.28-1,22.23,22.23,0,0,0-4.16-.42c-10,0-12.33,7.94-12.33,7.94h-.24V10.37a.85.85,0,0,0-.85-.85h-9.1a.85.85,0,0,0-.85.85v4.76a.77.77,0,0,0,.68.85h3.17V33.07H76.4a.75.75,0,0,0-.85.85v4.76a.8.8,0,0,0,.75.85H88.8a.85.85,0,0,0,.85-.85V33.92a.85.85,0,0,0-.85-.85H86.69V25.62c0-4.15,5-8.91,10.39-8.4A.65.65,0,0,0,97.71,16.79Z" transform="translate(-0.05 0.01)"/><path class="cls-1" d="M196.25,33V.85A.75.75,0,0,0,195.4,0h-9a.79.79,0,0,0-.92.85V5.61a.79.79,0,0,0,.72.86h2.2v4.4c0,1.28.12,2.5.12,2.5h-.12C187.85,12.2,185.47,9,180,9c-8.48,0-13.92,6.35-13.92,15.32,0,9.95,5.8,15.57,13.73,15.57,5.74,0,8.73-3.72,9.22-4.94h.12v3a1.56,1.56,0,0,0,1.56,1.56H195a1.23,1.23,0,0,0,1.23-1.23V33.06Zm-14.89.06c-4.39,0-7.26-3.54-7.26-8.79s3.11-8.42,7.26-8.42c3.72,0,7,2.75,7,8.48S185.33,33.09,181.36,33.09Z" transform="translate(-0.05 0.01)"/><path class="cls-1" d="M246.93,33.11h-2.25V19.86c0-6.29-3.54-10.74-10.13-10.74s-8.67,4.21-9.22,5c-1.47-3.05-4.46-5-8.79-5-6.78,0-8.91,4.7-9.22,5.25h-.18V10.83a1.11,1.11,0,0,0-1.34-1.28h-4.4a1.33,1.33,0,0,0-1.33,1.33h0V37.74a1.84,1.84,0,0,0,1.84,1.84h8.45a.85.85,0,0,0,.85-.85V34a.75.75,0,0,0-.85-.85h-2.12V20.16a5.44,5.44,0,0,1,5.37-4c3.91,0,5,2.56,5,6.29V38.83a.71.71,0,0,0,.7.72h9.63a.8.8,0,0,0,.85-.75.81.81,0,0,0,0-.1V34a.75.75,0,0,0-.85-.85h-2.19V20.84a7.62,7.62,0,0,0-.18-1.16,5.22,5.22,0,0,1,5.07-3.48c3.85,0,5,2.56,5,6.29V36.77a2.81,2.81,0,0,0,2.81,2.81H247a.85.85,0,0,0,.85-.85V34a.75.75,0,0,0-.87-.85Z" transform="translate(-0.05 0.01)"/><path class="cls-1" d="M55.06,6.59H40.51A10.72,10.72,0,0,0,30,14.95,10.72,10.72,0,0,0,19.59,6.59H5a5,5,0,0,0-5,5v25.6a5,5,0,0,0,5,5h9.34C25,42.19,28.21,44.75,29.73,50a.28.28,0,0,0,.28.21h.06a.28.28,0,0,0,.28-.21c1.53-5.27,4.71-7.83,15.34-7.83H55a5,5,0,0,0,5-5V11.59A5,5,0,0,0,55.06,6.59ZM25.25,34.22a.36.36,0,0,1-.36.36H8.19a.36.36,0,0,1-.36-.36V31.84a.36.36,0,0,1,.36-.36h16.7a.36.36,0,0,1,.36.36Zm0-6.34a.36.36,0,0,1-.36.36H8.19a.36.36,0,0,1-.36-.36V25.5a.36.36,0,0,1,.36-.36h16.7a.36.36,0,0,1,.36.36Zm0-6.34a.36.36,0,0,1-.36.36H8.19a.36.36,0,0,1-.36-.36V19.16a.36.36,0,0,1,.36-.36h16.7a.36.36,0,0,1,.36.36Zm27,12.67a.36.36,0,0,1-.36.36H35.19a.36.36,0,0,1-.36-.36V31.83a.36.36,0,0,1,.36-.36h16.7a.36.36,0,0,1,.36.36Zm0-6.34a.36.36,0,0,1-.36.36H35.19a.36.36,0,0,1-.36-.36V25.49a.36.36,0,0,1,.36-.36h16.7a.36.36,0,0,1,.36.36Zm0-6.34a.36.36,0,0,1-.36.36H35.19a.36.36,0,0,1-.36-.36V19.16a.36.36,0,0,1,.36-.36h16.7a.36.36,0,0,1,.36.36v2.38Z" transform="translate(-0.05 0.01)"/></svg>