<?xml version="1.0" standalone="no"?><!DOCTYPE svg PUBLIC "-//W3C//DTD SVG 1.1//EN" "http://www.w3.org/Graphics/SVG/1.1/DTD/svg11.dtd"><svg width="100%" height="100%" viewBox="0 0 33 33" version="1.1" xmlns="http://www.w3.org/2000/svg" xmlns:xlink="http://www.w3.org/1999/xlink" xml:space="preserve" style="fill-rule:evenodd;clip-rule:evenodd;stroke-linejoin:round;stroke-miterlimit:1.41421;"><g><path d="M15.142,15.305c-0.192,0 -0.384,-0.074 -0.53,-0.22c-0.293,-0.293 -0.293,-0.767 0,-1.061l5.303,-5.303c0.294,-0.292 0.768,-0.292 1.061,0c0.293,0.293 0.293,0.768 0,1.061l-5.303,5.303c-0.147,0.146 -0.339,0.22 -0.531,0.22" style="fill:#232323;fill-rule:nonzero;"/><path d="M17.264,17.426c-0.192,0 -0.384,-0.074 -0.53,-0.22c-0.294,-0.292 -0.294,-0.767 0,-1.06l2.651,-2.652c0.293,-0.293 0.768,-0.293 1.06,0c0.294,0.292 0.294,0.768 0,1.06l-2.651,2.652c-0.146,0.146 -0.338,0.22 -0.53,0.22" style="fill:#232323;fill-rule:nonzero;"/><path d="M0.75,32.879c-0.192,0 -0.384,-0.074 -0.53,-0.22c-0.293,-0.293 -0.293,-0.767 0,-1.061l9.103,-9.103c-4.742,-5.294 -4.57,-13.461 0.516,-18.547c5.263,-5.264 13.828,-5.264 19.092,0c2.55,2.55 3.954,5.94 3.954,9.546c0,3.606 -1.404,6.996 -3.954,9.546c-3.531,3.531 -8.695,4.823 -13.478,3.371c-0.397,-0.12 -0.62,-0.539 -0.5,-0.936c0.121,-0.396 0.541,-0.618 0.936,-0.499c4.252,1.291 8.842,0.142 11.981,-2.996c2.267,-2.268 3.515,-5.28 3.515,-8.486c0,-3.205 -1.248,-6.219 -3.515,-8.485c-4.679,-4.679 -12.292,-4.679 -16.97,0c-4.679,4.679 -4.679,12.291 0,16.971c0.14,0.14 0.22,0.331 0.22,0.53c0,0.199 -0.08,0.389 -0.22,0.53l-9.62,9.619c-0.146,0.146 -0.338,0.22 -0.53,0.22" style="fill:#232323;fill-rule:nonzero;"/><path d="M19.385,4.494c-2.404,0 -4.664,0.937 -6.364,2.636c-3.509,3.509 -3.509,9.219 0,12.728c1.7,1.699 3.96,2.636 6.364,2.636c2.404,0 4.664,-0.937 6.364,-2.636c1.7,-1.7 2.636,-3.959 2.636,-6.364c0,-2.404 -0.936,-4.664 -2.636,-6.364c-1.7,-1.699 -3.96,-2.636 -6.364,-2.636M19.385,23.994c-2.804,0 -5.441,-1.093 -7.424,-3.076c-4.095,-4.093 -4.095,-10.755 0,-14.848c1.983,-1.983 4.62,-3.076 7.424,-3.076c2.805,0 5.441,1.093 7.424,3.076c1.984,1.983 3.076,4.619 3.076,7.424c0,2.805 -1.092,5.441 -3.076,7.424c-1.983,1.983 -4.619,3.076 -7.424,3.076" style="fill:#232323;fill-rule:nonzero;"/></g></svg>