<svg id="Large" xmlns="http://www.w3.org/2000/svg" viewBox="0 0 1103 400"><defs><style>.cls-1{fill:#fff;}</style></defs><path class="cls-1" d="M0,0H400V400H0ZM41.4,358.6H358.6V41.4H41.4ZM201.34,103.17h41.4v121.2c0,54.76-31.05,87.82-83.47,87.82-51.42,0-81.81-32.39-81.81-87.82V103.17h41.41v121.2c0,30.39,12.68,48.75,41.4,48.75,27.71,0,41.07-17.36,41.07-48.75Zm120.2,0c0,14.69-10.69,24.71-25.38,24.71s-25.37-10-25.37-24.71c0-15,10.68-25.37,25.37-25.37S321.54,88.15,321.54,103.17Zm-46.08,44.41h41.4v162.6h-41.4Zm319.2,25c0,44.41-29.38,70.78-74.46,70.78H482.81v66.78H441.4v-207h78.8C566,103.17,594.66,129.88,594.66,172.62Zm-42.07,0c0-22.7-13-36.06-36.73-36.06H482.81v73.79h33.05C539.57,210.35,552.59,197,552.59,172.62Zm181.3-25H775.3v162.6H733.89V291.82c-11,13-28.38,20.37-52.75,20.37-44.08,0-75.13-34.73-75.13-83.14,0-48.08,30.39-83.47,75.13-83.47,23.7,0,41.73,8.34,52.75,22.37Zm0,81.47c0-28.05-16.69-47.41-43.07-47.41S648.08,200,648.08,229.05c0,27,14.69,46.74,42.74,46.74C716.2,275.79,733.89,257.43,733.89,229.05Zm142.57,45.74h16.37v35.39H871.12c-39.4,0-56.43-18.69-56.43-57.09V182.64H795.33V147.58h19.36V103.17H856.1v44.41h36.39v35.06H856.1v70.78C856.1,267.78,860.44,274.79,876.46,274.79Zm195-59.1v94.49h-41.41V220.37c0-24.71-12.69-40.74-37.06-40.74s-39.06,16.7-39.06,44.41v86.14H912.52v-217h41.41v71.11c10.34-12.35,26.71-19,49.08-19C1041.4,145.24,1071.46,173,1071.46,215.69Z"/></svg>