<svg fill="none" height="50" viewBox="0 0 100 50" width="100" xmlns="http://www.w3.org/2000/svg"><path clip-rule="evenodd" d="m45.7 36.5565c0 .4713-.1873.9234-.5206 1.2567s-.7853.5205-1.2567.5205c-.4713 0-.9233-.1872-1.2566-.5205s-.5206-.7854-.5206-1.2567v-17.6828c0-.4714.1873-.9234.5206-1.2567s.7853-.5205 1.2566-.5205c.4714 0 .9234.1872 1.2567.5205s.5206.7853.5206 1.2567z" fill="#050505" fill-rule="evenodd"/><path d="m30.3115 31.6339h6.5165c.4875-.0443.9393-.2746 1.2615-.6432s.49-.8471.4687-1.3362c0-.0329 0-.0611 0-.094-.315-6.4883-4.4854-7.4286-6.3754-7.4286-1.9653 0-6.4131 1.1613-6.4131 8.3783.0329 2.7128.6159 7.8987 6.319 7.8987 4.9273 0 6.0322-2.8492 6.0322-3.5732 0-1.072-.8933-1.9794-1.8806-1.6362-.8181.2774-1.9371 1.9042-3.7613 1.9042-2.5859 0-2.9198-2.3508-2.9198-2.868-.0094-.442.2163-.6018.7523-.6018zm-.7711-3.1783c.1176-2.4543 1.9794-2.8586 2.821-2.8586s2.7035.409 2.821 2.9009c0 .1316-.0705.2116-.1505.2116h-5.3363c-.0846-.0235-.1646-.1129-.1552-.2774z" fill="#050505"/><path d="m15.7365 36.1239-5.5527-11.3779c-.21194-.4364-.24187-.9392-.0832-1.3977.1588-.4585.4931-.8352.9295-1.0472.4365-.2119.9392-.2419 1.3977-.0832.4585.1588.8352.4931 1.0472.9295l4.302 8.8062 2.6423-8.5476c.1434-.4626.4647-.8493.8932-1.075s.9292-.272 1.3918-.1286.8493.4647 1.075.8932c.2257.4286.272.9292.1286 1.3918 0 0-2.9714 9.723-4.7581 15.3085-.5924 1.8524-2.1392 2.7693-4.4618 2.7081-2.3226-.0611-2.6564-1.4104-2.3978-2.299.2774-.9827 1.1002-1.2789 1.8806-1.2789 2.0781.0141 2.3461-1.2459 1.5657-2.8022z" fill="#050505"/><path d="m63.2558 29.4946c0-2.3508-.2868-5.5291-3.2347-6.9302-.8282-.3963-1.7385-.5906-2.6564-.5669-.9178.0237-1.8169.2648-2.6235.7033-.3117.1805-.6131.3782-.9027.5924-.1039-.421-.358-.7895-.7147-1.0362-.3566-.2466-.7911-.3543-1.2217-.3029-.4305.0514-.8274.2585-1.1159.5822s-.4487.7417-.4504 1.1753v17.6829c0 .4713.1872.9234.5205 1.2566.3333.3333.7853.5206 1.2567.5206.4713 0 .9234-.1873 1.2567-.5206.3332-.3332.5205-.7853.5205-1.2566v-4.6405c.391.4431.8654.8049 1.3962 1.0646.5309.2598 1.1076.4125 1.6975.4493 6.7468.1739 6.3048-7.1653 6.2719-8.7733zm-3.5215 1.3494c0 1.4105 0 3.9259-2.553 3.9259s-2.553-2.5248-2.553-3.9259v-1.2835c0-1.4105 0-3.9259 2.553-3.9259s2.553 2.5201 2.553 3.9259z" fill="#050505"/><g clip-rule="evenodd" fill="#d32323" fill-rule="evenodd"><path d="m68.8555 20.9565 6.2061 3.0278c.2676.1237.4896.328.6351.5844.1454.2564.2069.5518.1757.8449-.0311.2931-.1532.5691-.3493.7892-.196.2201-.456.3732-.7436.438l-6.6998 1.669c-.1969.0512-.4025.0593-.6028.0236-.2003-.0358-.3904-.1144-.5575-.2305-.167-.1161-.3069-.267-.4102-.4423-.1032-.1753-.1673-.3708-.1879-.5732-.208-1.7952-.017-3.6142.5595-5.3269.065-.1915.1704-.3668.3091-.5139.1386-.1472.3073-.2628.4946-.3391.1873-.0762.3888-.1113.5908-.1029.2021.0085.3999.0603.5802.1519z"/><path d="m71.3379 33.7308 4.6217-5.1295c.1923-.2237.45-.3815.7367-.4512.2867-.0696.588-.0476.8615.0629.2736.1106.5056.3041.6633.5534.1578.2493.2334.5418.2163.8364l-.2351 6.902c-.0049.2034-.0538.4034-.1433.5861-.0895.1828-.2174.344-.3751.4726s-.3413.2216-.5383.2726-.4027.0587-.603.0227c-1.7756-.2964-3.4652-.9768-4.9508-1.9934-.1703-.1131-.3141-.2619-.4212-.436-.1072-.1742-.1752-.3696-.1993-.5726-.0242-.203-.0039-.4089.0594-.6033.0633-.1945.1682-.3728.3072-.5227z"/><path d="m82.288 26.904 6.5823 2.1346c.1939.0606.3725.1625.5234.2985.1509.1361.2707.3032.351.4898.0804.1866.1195.3884.1146.5916-.0048.2031-.0535.4028-.1427.5854-.7749 1.6338-1.8983 3.0781-3.2911 4.2314-.1554.1307-.3372.2264-.533.2803-.1958.054-.4009.0651-.6013.0325s-.3915-.1081-.5601-.2213c-.1685-.1132-.3107-.2615-.4167-.4347l-3.6625-5.8582c-.1699-.2457-.2573-.5389-.2498-.8375.0075-.2985.1095-.587.2915-.8239.1819-.2368.4343-.4098.7209-.494.2865-.0842.5924-.0752.8735.0255z"/><path d="m88.9643 22.7008-6.634 1.9042c-.2817.0878-.5839.0851-.864-.0077-.2801-.0929-.524-.2713-.6974-.5101-.1733-.2388-.2675-.526-.2691-.8211s.0894-.5832.2602-.8239l3.86-5.7266c.1117-.1694.2587-.3128.4309-.4202.1722-.1075.3655-.1765.5668-.2024s.4058-.008.5996.0524.3722.1619.5232.2975c1.3517 1.1909 2.4227 2.6665 3.1359 4.3208.0833.1856.1254.3869.1235.5903-.0018.2034-.0477.4039-.1343.5879s-.212.3471-.3676.4781-.3376.2267-.5337.2808z"/><path d="m73.4584 6.61182c-1.1722.31363-2.3131.73383-3.4087 1.25533-.1785.08335-.3375.20316-.4669.35172-.1294.14855-.2262.32255-.2842.5108-.058.18824-.076.38654-.0527.58215.0233.1956.0873.38415.1879.55352l6.4835 11.23216c.1493.2823.3899.5055.6826.6333.2926.1277.6199.1524.9284.0699.3085-.0824.5799-.2671.7698-.5238s.2871-.5702.2756-.8893v-12.9718c.0008-.19598-.0393-.38996-.1177-.56958-.0784-.17961-.1934-.34092-.3376-.47363-.1442-.1327-.3145-.23391-.5-.29715-.1855-.06323-.3822-.08712-.5774-.07013-1.2102.09258-2.4094.29559-3.5826.60651z"/></g></svg>
